<?xml version="1.0" encoding="utf-8"?>
<!-- Generator: Adobe Illustrator 27.9.0, SVG Export Plug-In . SVG Version: 6.00 Build 0)  -->
<svg version="1.1" id="Layer_1" xmlns="http://www.w3.org/2000/svg" xmlns:xlink="http://www.w3.org/1999/xlink" x="0px" y="0px"
	 viewBox="0 0 1000 250" style="enable-background:new 0 0 1000 250;" xml:space="preserve">
<style type="text/css">
	.st0{enable-background:new    ;}
	.st1{fill:#FFFFFF;}
	.st2{fill:none;stroke:#FFFFFF;stroke-width:20;stroke-miterlimit:10;}
</style>
<g>
	<g class="st0">
		<path class="st1" d="M67.81,128.03H46.95v-25.28h20.85V84.64c0-5.61,0.49-10.92,1.47-15.9c0.98-4.98,2.88-9.37,5.69-13.16
			c2.81-3.79,6.85-6.77,12.11-8.95c5.27-2.18,12.18-3.26,20.75-3.26c3.23,0,6.39,0.14,9.48,0.42c3.09,0.28,6.11,0.77,9.06,1.47
			L124.89,72c-1.83-0.7-3.51-1.23-5.05-1.58c-1.55-0.35-3.3-0.53-5.27-0.53c-5.06,0-8.85,1.09-11.37,3.26
			c-2.53,2.18-3.79,6.63-3.79,13.38v16.22h23.38v25.28H99.4v77.09H67.81V128.03z"/>
		<path class="st1" d="M130.99,153.93c0-8.14,1.47-15.51,4.42-22.12c2.95-6.6,6.98-12.25,12.11-16.96
			c5.12-4.7,11.16-8.32,18.11-10.85s14.36-3.79,22.22-3.79c7.86,0,15.27,1.26,22.22,3.79s12.99,6.14,18.11,10.85
			c5.12,4.71,9.16,10.36,12.11,16.96c2.95,6.6,4.42,13.97,4.42,22.12c0,8.15-1.47,15.52-4.42,22.12
			c-2.95,6.6-6.99,12.25-12.11,16.96c-5.13,4.71-11.16,8.32-18.11,10.85s-14.36,3.79-22.22,3.79c-7.87,0-15.27-1.26-22.22-3.79
			s-12.99-6.14-18.11-10.85c-5.13-4.7-9.16-10.35-12.11-16.96C132.47,169.45,130.99,162.08,130.99,153.93z M162.59,153.93
			c0,7.72,2.21,13.97,6.63,18.75c4.42,4.78,10.64,7.16,18.64,7.16s14.22-2.39,18.64-7.16c4.42-4.77,6.63-11.02,6.63-18.75
			c0-7.72-2.21-13.97-6.63-18.75c-4.42-4.77-10.64-7.16-18.64-7.16s-14.22,2.39-18.64,7.16
			C164.8,139.96,162.59,146.21,162.59,153.93z"/>
		<path class="st1" d="M332.98,128.03h-27.8v34.12c0,2.81,0.14,5.37,0.42,7.69c0.28,2.32,0.91,4.32,1.9,6
			c0.98,1.68,2.49,2.98,4.53,3.9c2.03,0.92,4.74,1.37,8.11,1.37c1.69,0,3.9-0.17,6.63-0.53c2.74-0.35,4.81-1.16,6.21-2.42v26.33
			c-3.51,1.26-7.16,2.11-10.95,2.53c-3.79,0.42-7.51,0.63-11.16,0.63c-5.34,0-10.25-0.56-14.74-1.68c-4.5-1.12-8.43-2.91-11.79-5.37
			c-3.37-2.46-6-5.65-7.9-9.58c-1.9-3.93-2.84-8.71-2.84-14.32v-48.65h-20.22v-25.28h20.22V72.42h31.59v30.33h27.8V128.03z"/>
		<path class="st1" d="M345.19,153.93c0-8.14,1.47-15.51,4.42-22.12c2.95-6.6,6.98-12.25,12.11-16.96
			c5.12-4.7,11.16-8.32,18.11-10.85s14.36-3.79,22.22-3.79c7.86,0,15.27,1.26,22.22,3.79s12.99,6.14,18.11,10.85
			c5.12,4.71,9.16,10.36,12.11,16.96c2.95,6.6,4.42,13.97,4.42,22.12c0,8.15-1.47,15.52-4.42,22.12
			c-2.95,6.6-6.99,12.25-12.11,16.96c-5.13,4.71-11.16,8.32-18.11,10.85s-14.36,3.79-22.22,3.79c-7.87,0-15.27-1.26-22.22-3.79
			s-12.99-6.14-18.11-10.85c-5.13-4.7-9.16-10.35-12.11-16.96C346.67,169.45,345.19,162.08,345.19,153.93z M376.79,153.93
			c0,7.72,2.21,13.97,6.63,18.75c4.42,4.78,10.64,7.16,18.64,7.16s14.22-2.39,18.64-7.16c4.42-4.77,6.63-11.02,6.63-18.75
			c0-7.72-2.21-13.97-6.63-18.75c-4.42-4.77-10.64-7.16-18.64-7.16s-14.22,2.39-18.64,7.16C379,139.96,376.79,146.21,376.79,153.93z
			"/>
		<path class="st1" d="M466.72,102.75h34.12l25.91,69.51h0.42l24.01-69.51h31.8l-40.44,102.36h-33.49L466.72,102.75z"/>
		<path class="st1" d="M658.81,192.27h-0.42c-3.51,5.48-8.18,9.41-14.01,11.79c-5.83,2.39-11.97,3.58-18.43,3.58
			c-4.78,0-9.37-0.67-13.8-2s-8.32-3.33-11.69-6c-3.37-2.67-6.04-5.97-8-9.9c-1.97-3.93-2.95-8.49-2.95-13.69
			c0-5.9,1.09-10.88,3.26-14.95c2.17-4.07,5.12-7.44,8.85-10.11c3.72-2.67,7.97-4.74,12.74-6.21c4.77-1.47,9.72-2.56,14.85-3.26
			c5.12-0.7,10.25-1.12,15.38-1.26c5.12-0.14,9.86-0.21,14.22-0.21c0-5.61-2-10.07-6-13.37c-4-3.3-8.74-4.95-14.22-4.95
			c-5.2,0-9.94,1.09-14.22,3.26c-4.29,2.18-8.11,5.16-11.48,8.95l-16.85-17.27c5.9-5.48,12.78-9.58,20.64-12.32
			c7.86-2.74,16.01-4.11,24.43-4.11c9.27,0,16.88,1.16,22.85,3.48c5.97,2.32,10.74,5.72,14.32,10.21c3.58,4.5,6.07,10,7.48,16.53
			c1.4,6.53,2.11,14.08,2.11,22.64v52.02h-29.07V192.27z M651.02,160.25c-2.39,0-5.37,0.11-8.95,0.32
			c-3.58,0.21-7.02,0.81-10.32,1.79c-3.3,0.98-6.11,2.46-8.42,4.42c-2.32,1.97-3.48,4.71-3.48,8.21c0,3.79,1.61,6.6,4.84,8.42
			c3.23,1.83,6.6,2.74,10.11,2.74c3.09,0,6.07-0.42,8.95-1.26c2.88-0.84,5.44-2.03,7.69-3.58c2.25-1.54,4.04-3.51,5.37-5.9
			c1.33-2.39,2-5.19,2-8.42v-6.74H651.02z"/>
		<path class="st1" d="M806.24,205.12h-30.33v-13.9h-0.42c-1.13,1.97-2.56,3.93-4.32,5.9c-1.76,1.97-3.9,3.72-6.42,5.27
			c-2.53,1.55-5.41,2.81-8.64,3.79c-3.23,0.98-6.74,1.47-10.53,1.47c-8,0-14.5-1.23-19.48-3.69c-4.99-2.46-8.85-5.86-11.58-10.22
			c-2.74-4.35-4.57-9.48-5.48-15.38c-0.92-5.9-1.37-12.29-1.37-19.17v-56.45h31.59v50.13c0,2.95,0.11,6,0.32,9.16
			c0.21,3.16,0.84,6.08,1.9,8.74c1.05,2.67,2.67,4.84,4.84,6.53c2.18,1.69,5.3,2.53,9.37,2.53c4.07,0,7.37-0.74,9.9-2.21
			c2.53-1.47,4.46-3.44,5.79-5.9c1.33-2.46,2.21-5.23,2.63-8.32c0.42-3.09,0.63-6.32,0.63-9.69v-50.97h31.59V205.12z"/>
		<path class="st1" d="M828.99,45.88h31.59v159.23h-31.59V45.88z"/>
		<path class="st1" d="M953.05,128.03h-27.8v34.12c0,2.81,0.14,5.37,0.42,7.69c0.28,2.32,0.91,4.32,1.9,6
			c0.98,1.68,2.49,2.98,4.53,3.9c2.03,0.92,4.74,1.37,8.11,1.37c1.69,0,3.9-0.17,6.63-0.53c2.74-0.35,4.81-1.16,6.21-2.42v26.33
			c-3.51,1.26-7.16,2.11-10.95,2.53c-3.79,0.42-7.51,0.63-11.16,0.63c-5.34,0-10.25-0.56-14.74-1.68c-4.5-1.12-8.42-2.91-11.79-5.37
			c-3.37-2.46-6-5.65-7.9-9.58c-1.9-3.93-2.84-8.71-2.84-14.32v-48.65h-20.22v-25.28h20.22V72.42h31.59v30.33h27.8V128.03z"/>
	</g>
	<path class="st2" d="M370.29,129.94V92.97c0-14.64,11.86-26.5,26.5-26.5h10.62c14.64,0,26.5,13.14,26.5,26.5v5.23"/>
</g>
<g>
</g>
<g>
</g>
<g>
</g>
<g>
</g>
<g>
</g>
<g>
</g>
</svg>
