<?xml version="1.0" encoding="UTF-8"?>
<svg id="a" data-name="Layer 1" xmlns="http://www.w3.org/2000/svg" viewBox="0 0 512 512">
  <defs>
    <style>
      .b {
        fill: none;
        stroke: #020202;
        stroke-miterlimit: 10;
        stroke-width: 45px;
      }

      .c {
        fill: #020202;
      }
    </style>
  </defs>
  <path class="c" d="M75.6,320.52c0-25.83,4.66-49.21,14.02-70.18,9.36-20.94,22.15-38.87,38.42-53.81,16.24-14.91,35.41-26.4,57.46-34.42,22.05-8.03,45.56-12.02,70.5-12.02s48.45,4,70.5,12.02c22.05,8.03,41.21,19.48,57.46,34.42,16.24,14.94,29.06,32.87,38.42,53.81,9.36,20.94,14.02,44.32,14.02,70.18s-4.66,49.24-14.02,70.18c-9.36,20.94-22.18,38.87-38.42,53.81-16.28,14.94-35.41,26.4-57.46,34.42-22.05,8.03-45.56,12.02-70.5,12.02s-48.45-4-70.5-12.02c-22.05-8.03-41.21-19.48-57.46-34.42-16.28-14.91-29.06-32.84-38.42-53.81-9.33-20.94-14.02-44.32-14.02-70.18ZM175.86,320.52c0,24.49,7.01,44.32,21.03,59.49s33.76,22.72,59.14,22.72,45.12-7.58,59.14-22.72,21.03-34.96,21.03-59.49-7.01-44.32-21.03-59.49c-14.02-15.13-33.76-22.72-59.14-22.72s-45.12,7.58-59.14,22.72c-14.02,15.17-21.03,34.99-21.03,59.49Z"/>
  <path class="b" d="M155.24,244.41v-117.29c0-46.45,37.63-84.08,84.08-84.08h33.69c46.45,0,84.08,41.69,84.08,84.08v16.59"/>
</svg>