<?xml version="1.0" encoding="UTF-8"?>
<svg id="Layer_1" xmlns="http://www.w3.org/2000/svg" version="1.1" viewBox="0 0 512 512">
  <!-- Generator: Adobe Illustrator 29.0.1, SVG Export Plug-In . SVG Version: 2.1.0 Build 192)  -->
  <defs>
    <style>
      .st0 {
        fill: none;
        stroke-width: 45px;
      }

      .st0, .st1 {
        stroke: #fff;
        stroke-miterlimit: 10;
      }

      .st1 {
        fill: #fff;
      }
    </style>
  </defs>
  <path class="st1" d="M75.6,320.5c0-25.8,4.7-49.2,14-70.2,9.4-20.9,22.2-38.9,38.4-53.8s35.4-26.4,57.5-34.4,45.6-12,70.5-12,48.5,4,70.5,12,41.2,19.5,57.5,34.4c16.2,14.9,29.1,32.9,38.4,53.8s14,44.3,14,70.2-4.7,49.2-14,70.2-22.2,38.9-38.4,53.8c-16.3,14.9-35.4,26.4-57.5,34.4-22,8-45.6,12-70.5,12s-48.4-4-70.5-12-41.2-19.5-57.5-34.4-29.1-32.8-38.4-53.8c-9.3-20.9-14-44.3-14-70.2h0ZM175.9,320.5c0,24.5,7,44.3,21,59.5s33.8,22.7,59.1,22.7,45.1-7.6,59.1-22.7,21-35,21-59.5-7-44.3-21-59.5c-14-15.1-33.8-22.7-59.1-22.7s-45.1,7.6-59.1,22.7c-14,15.2-21,35-21,59.5h0Z"/>
  <path class="st0" d="M155.2,244.4v-117.3c0-46.5,37.6-84.1,84.1-84.1h33.7c46.5,0,84.1,41.7,84.1,84.1v16.6"/>
</svg>